<?xml version="1.0" standalone="no"?>
<!DOCTYPE svg PUBLIC "-//W3C//DTD SVG 20010904//EN"
 "http://www.w3.org/TR/2001/REC-SVG-20010904/DTD/svg10.dtd">
<svg version="1.0" xmlns="http://www.w3.org/2000/svg"
 width="671.000000pt" height="671.000000pt" viewBox="0 0 671.000000 671.000000"
 preserveAspectRatio="xMidYMid meet">
<metadata>
Created by potrace 1.11, written by Peter Selinger 2001-2013
</metadata>
<g transform="translate(0.000000,671.000000) scale(0.100000,-0.100000)"
fill="#000000" stroke="none">
<path d="M3149 6706 c-2 -2 -42 -6 -89 -10 -135 -10 -338 -44 -488 -81 -492
-121 -914 -330 -1322 -654 -90 -72 -339 -313 -426 -411 -63 -73 -114 -138
-114 -147 0 -4 576 -7 1280 -7 l1280 2 0 -87 c3 -464 1 -723 -3 -728 -3 -3
-386 -5 -850 -5 l-844 0 0 -504 0 -504 793 0 794 0 0 -405 c0 -317 -3 -405
-12 -406 -7 0 -365 0 -794 -1 l-782 0 0 -884 c1 -487 -2 -888 -6 -891 -3 -4
-131 -6 -284 -6 l-277 1 85 -80 c281 -267 656 -503 1030 -651 310 -122 617
-195 945 -225 159 -14 589 -7 705 12 14 2 48 7 75 11 28 3 82 12 120 20 39 8
82 16 96 19 57 10 299 77 380 105 203 71 428 174 589 270 47 28 98 58 114 67
131 74 409 296 566 454 167 167 278 297 385 450 l38 55 -59 -60 c-174 -176
-339 -282 -586 -374 -99 -37 -270 -83 -353 -96 -90 -13 -111 -16 -134 -20
-152 -25 -608 -25 -761 -1 -14 3 -45 7 -70 10 -119 16 -301 54 -430 91 -118
34 -223 73 -320 119 l-55 26 67 268 c37 147 70 278 73 292 3 14 12 52 20 85 9
33 17 67 19 75 18 71 28 100 35 100 4 0 36 -14 71 -31 161 -78 440 -169 595
-194 22 -4 54 -9 70 -11 17 -3 41 -7 55 -10 132 -24 440 -24 557 0 246 51 390
166 439 351 28 105 9 239 -46 325 -80 123 -189 198 -475 325 -16 7 -88 34
-160 60 -360 130 -635 272 -815 421 -82 69 -206 201 -254 274 -78 116 -147
273 -162 368 -3 20 -8 40 -9 43 -8 13 -18 110 -19 194 -2 80 3 144 18 255 14
102 88 296 157 410 64 107 210 268 299 330 19 13 37 27 40 30 31 36 254 154
380 200 100 37 293 87 370 96 30 3 58 8 61 10 40 23 609 24 724 0 11 -2 47 -7
80 -11 32 -3 62 -8 65 -10 3 -2 24 -6 46 -9 51 -6 226 -49 329 -81 43 -13 81
-23 82 -21 5 5 -102 142 -193 246 -379 436 -879 775 -1419 963 -86 30 -217 69
-273 82 -9 2 -45 11 -79 19 -34 9 -77 18 -95 21 -18 3 -40 8 -48 10 -8 2 -33
7 -55 10 -23 3 -50 7 -62 9 -12 3 -53 8 -90 11 -37 4 -77 9 -88 12 -22 5 -521
13 -526 9z"/>
<path d="M543 5167 c-198 -295 -368 -697 -451 -1067 -28 -125 -36 -169 -47
-260 -3 -19 -7 -48 -10 -65 -27 -173 -27 -698 1 -837 2 -13 6 -45 9 -72 3 -27
7 -51 9 -55 2 -3 7 -28 10 -56 28 -214 163 -620 293 -880 59 -119 204 -367
211 -360 5 5 5 3675 0 3680 -2 2 -13 -11 -25 -28z"/>
<path d="M6175 5102 c-4 -20 -19 -82 -35 -137 -16 -55 -54 -192 -85 -305 -32
-113 -59 -207 -61 -209 -1 -1 -47 15 -101 37 -157 64 -309 106 -488 137 -164
28 -457 26 -579 -4 -237 -57 -381 -196 -392 -378 -10 -175 75 -296 294 -416
77 -43 376 -175 432 -192 14 -4 39 -13 55 -20 17 -7 80 -32 140 -56 219 -85
435 -207 595 -334 70 -56 198 -186 227 -232 9 -15 20 -30 23 -33 12 -10 66
-106 92 -160 27 -60 72 -194 82 -250 21 -111 28 -343 14 -440 -18 -116 -55
-255 -84 -312 -8 -16 -11 -28 -7 -28 8 1 59 101 113 225 17 39 37 84 45 100
60 136 167 498 190 645 3 19 8 46 10 60 10 50 13 66 20 130 4 36 9 73 11 83 8
46 17 235 16 359 0 149 -12 331 -28 433 -3 22 -8 54 -10 70 -42 286 -150 638
-276 902 -54 114 -144 278 -179 325 l-27 38 -7 -38z"/>
</g>
</svg>
